<svg xmlns="http://www.w3.org/2000/svg" width="256" height="256" viewBox="0 0 256 256">
  <defs>
    <radialGradient id="grad1" cx="50%" cy="50%" r="50%" fx="50%" fy="50%">
      <stop offset="0%" style="stop-color:#4A90E2;stop-opacity:1" />
      <stop offset="100%" style="stop-color:#1E1E1E;stop-opacity:1" />
    </radialGradient>
  </defs>
  
  <!-- Background -->
  <circle cx="128" cy="128" r="120" fill="#121212" stroke="#4A90E2" stroke-width="3" />
  
  <!-- Bomb silhouette -->
  <circle cx="128" cy="128" r="80" fill="url(#grad1)" />
  <path d="M128 48 L128 20 M113 22 L143 22" stroke="#4A90E2" stroke-width="8" stroke-linecap="round" />
  
  <!-- Explosion lines -->
  <g stroke="#FF5555" stroke-width="4" stroke-linecap="round">
    <line x1="62" y1="62" x2="42" y2="42" />
    <line x1="194" y1="62" x2="214" y2="42" />
    <line x1="62" y1="194" x2="42" y2="214" />
    <line x1="194" y1="194" x2="214" y2="214" />
    <line x1="48" y1="128" x2="28" y2="128" />
    <line x1="228" y1="128" x2="208" y2="128" />
    <line x1="128" y1="48" x2="128" y2="28" />
    <line x1="128" y1="228" x2="128" y2="208" />
  </g>
  
  <!-- Clock face -->
  <circle cx="128" cy="128" r="60" fill="none" stroke="#FFFFFF" stroke-width="2" />
  
  <!-- Clock hands -->
  <line x1="128" y1="128" x2="128" y2="88" stroke="#FFFFFF" stroke-width="4" stroke-linecap="round" />
  <line x1="128" y1="128" x2="158" y2="128" stroke="#FFFFFF" stroke-width="4" stroke-linecap="round" />
  
  <!-- Target indicator -->
  <circle cx="128" cy="128" r="15" fill="none" stroke="#55FF55" stroke-width="3" stroke-dasharray="6,3" />
  <circle cx="128" cy="128" r="5" fill="#55FF55" />
</svg>
